<?xml version="1.0" standalone="no"?><!DOCTYPE svg PUBLIC "-//W3C//DTD SVG 1.1//EN" "http://www.w3.org/Graphics/SVG/1.1/DTD/svg11.dtd"><svg t="1509948051511" class="icon" style="" viewBox="0 0 1024 1024" version="1.1" xmlns="http://www.w3.org/2000/svg" p-id="4162" xmlns:xlink="http://www.w3.org/1999/xlink" width="200" height="200"><defs><style type="text/css"></style></defs><path d="M648.533333 279.210667V46.626133h22.7328l204.8 232.721067H648.533333z m227.5328 651.6736a46.011733 46.011733 0 0 1-45.4656 46.557866H193.399467a46.011733 46.011733 0 0 1-45.4656-46.557866V93.115733c0-25.736533 20.343467-46.557867 45.4656-46.557866h409.6V279.210667c0 25.668267 20.411733 46.557867 45.533866 46.557866h227.5328v605.047467zM694.0672 0H193.399467C143.1552 0 102.4 41.642667 102.4 93.115733v837.768534C102.4 982.357333 143.1552 1024 193.399467 1024h637.201066c50.244267 0 90.999467-41.642667 90.999467-93.115733V256L694.0672 0z m-409.6 418.884267c0 12.9024 10.171733 23.278933 22.7328 23.278933h409.6a23.005867 23.005867 0 0 0 22.7328-23.210667A23.005867 23.005867 0 0 0 716.8 395.537067H307.2a23.005867 23.005867 0 0 0-22.7328 23.278933zM716.8 581.8368H307.2a23.005867 23.005867 0 0 0-22.7328 23.210667c0 12.970667 10.171733 23.3472 22.7328 23.3472h409.6a23.005867 23.005867 0 0 0 22.7328-23.278934A23.005867 23.005867 0 0 0 716.8 581.8368zM307.2 256h113.800533A23.005867 23.005867 0 0 0 443.733333 232.789333a23.005867 23.005867 0 0 0-22.7328-23.3472H307.2a23.005867 23.005867 0 0 0-22.7328 23.278934c0 12.9024 10.171733 23.278933 22.7328 23.278933z m273.066667 512H307.2a23.005867 23.005867 0 0 0-22.7328 23.210667c0 12.970667 10.171733 23.3472 22.7328 23.3472h273.066667a23.005867 23.005867 0 0 0 22.7328-23.278934A23.005867 23.005867 0 0 0 580.266667 768z" p-id="4163" fill="#ffffff"></path></svg>