<?xml version="1.0" encoding="UTF-8"?>
<svg width="24px" height="24px" viewBox="0 0 24 24" version="1.1" xmlns="http://www.w3.org/2000/svg" xmlns:xlink="http://www.w3.org/1999/xlink">
    <!-- Generator: Sketch 46.2 (44496) - http://www.bohemiancoding.com/sketch -->
    <title>作业</title>
    <desc>Created with Sketch.</desc>
    <defs></defs>
    <g id="Page-1" stroke="none" stroke-width="1" fill="none" fill-rule="evenodd">
        <g id="流程图" transform="translate(-793.000000, -537.000000)" fill="#E2003B">
            <g transform="translate(351.000000, 519.000000)" id="Group-14">
                <g transform="translate(405.000000, 0.000000)">
                    <path d="M59.9090909,31.3472727 C59.9047273,31.3489091 59.9009091,31.3510909 59.8970909,31.3516364 L58.7805455,31.6314545 C58.396,31.7269091 58.0938182,32.0241818 57.9912727,32.4065455 C57.7812727,33.1914545 57.4670909,33.9463636 57.0585455,34.6510909 C56.8589091,34.9947273 56.8621818,35.4190909 57.0667273,35.76 L57.6678182,36.7609091 L55.7614545,38.6667273 C55.7576364,38.6650909 55.7538182,38.6629091 55.75,38.6607273 L54.7534545,38.0634545 C54.5805455,37.9598182 54.3869091,37.908 54.1921818,37.908 C54.0045455,37.908 53.8158182,37.9565455 53.6467273,38.0541818 C52.942,38.4610909 52.1898182,38.7730909 51.4092727,38.982 C51.0263636,39.0845455 50.7285455,39.3861818 50.6325455,39.7712727 L50.3510909,40.8970909 C50.35,40.9014545 50.3489091,40.9047273 50.3472727,40.9096364 L47.6516364,40.9096364 L47.3674545,39.7707273 C47.2709091,39.3861818 46.9736364,39.0845455 46.5907273,38.982 C45.8101818,38.7730909 45.058,38.4610909 44.3521818,38.0541818 C44.1836364,37.9565455 43.9954545,37.908 43.8078182,37.908 C43.6125455,37.908 43.4189091,37.9598182 43.246,38.0634545 L42.25,38.6607273 C42.2461818,38.6629091 42.2423636,38.6650909 42.238,38.6667273 L40.3327273,36.7609091 L40.9332727,35.7594545 C41.1378182,35.4190909 41.1410909,34.9947273 40.942,34.6510909 C40.5329091,33.9458182 40.2181818,33.1909091 40.0087273,32.4065455 C39.9061818,32.0241818 39.6034545,31.7269091 39.2194545,31.6314545 L38.1034545,31.3516364 C38.0996364,31.3510909 38.0952727,31.3489091 38.0909091,31.3472727 L38.0909091,28.6521818 L39.2194545,28.3701818 C39.6034545,28.2736364 39.9061818,27.9769091 40.0087273,27.5934545 C40.2181818,26.8096364 40.5329091,26.0547273 40.942,25.3494545 C41.1410909,25.0058182 41.1378182,24.5814545 40.9332727,24.2410909 L40.3392727,23.25 C40.3376364,23.2461818 40.3354545,23.2429091 40.3332727,23.2390909 L42.2390909,21.3332727 L43.246,21.9370909 C43.4189091,22.0407273 43.6125455,22.092 43.8078182,22.092 C43.9954545,22.092 44.1836364,22.0434545 44.3532727,21.9463636 C45.0569091,21.5394545 45.8101818,21.2269091 46.5907273,21.0185455 C46.9736364,20.916 47.2709091,20.6138182 47.3674545,20.2292727 L47.6516364,19.0909091 L50.3472727,19.0909091 C50.3489091,19.0952727 50.35,19.0990909 50.3510909,19.1034545 L50.6325455,20.2292727 C50.7285455,20.6138182 51.0263636,20.916 51.4092727,21.0185455 C52.1898182,21.2269091 52.942,21.5394545 53.6467273,21.9463636 C53.8158182,22.0434545 54.004,22.092 54.1921818,22.092 C54.3869091,22.092 54.5805455,22.0407273 54.7534545,21.9370909 L55.7603636,21.3332727 L57.6667273,23.2390909 C57.6645455,23.2429091 57.6629091,23.2461818 57.6607273,23.2505455 L57.0667273,24.2405455 C56.8621818,24.5814545 56.8589091,25.0058182 57.0585455,25.3494545 C57.4670909,26.0541818 57.7812727,26.8090909 57.9912727,27.5934545 C58.0938182,27.9769091 58.396,28.2736364 58.7805455,28.3701818 L59.9090909,28.6521818 L59.9090909,31.3472727 Z M60.1998182,27.6005455 L59.0450909,27.3114545 C58.8067273,26.4223636 58.4538182,25.5801818 58.0021818,24.8018182 L58.6169091,23.778 C58.8056364,23.412 58.9289091,22.9587273 58.6169091,22.6467273 L56.3538182,20.3836364 C56.2136364,20.2429091 56.0401818,20.1872727 55.8607273,20.1872727 C55.642,20.1872727 55.4134545,20.2701818 55.2225455,20.3836364 L54.1921818,21.0016364 C53.4165455,20.5532727 52.5776364,20.202 51.6912727,19.9647273 L51.4,18.8001818 C51.2750909,18.408 51.0416364,18 50.6003636,18 L47.3996364,18 C46.9583636,18 46.6998182,18.408 46.6,18.8001818 L46.3087273,19.9647273 C45.4223636,20.202 44.5834545,20.5532727 43.8078182,21.0016364 L42.7774545,20.3836364 C42.5865455,20.2701818 42.358,20.1872727 42.1392727,20.1872727 C41.9598182,20.1872727 41.7863636,20.2429091 41.6461818,20.3836364 L39.3830909,22.6467273 C39.0710909,22.9587273 39.1943636,23.412 39.3830909,23.778 L39.9978182,24.8018182 C39.5461818,25.5801818 39.1927273,26.4223636 38.9549091,27.3114545 L37.8001818,27.6005455 C37.408,27.6998182 37,27.9583636 37,28.4007273 L37,31.6003636 C37,32.0421818 37.408,32.2750909 37.8001818,32.4005455 L38.9549091,32.6890909 C39.1927273,33.5787273 39.5461818,34.4203636 39.9978182,35.1987273 L39.3830909,36.2225455 C39.1769091,36.5705455 39.0710909,37.0412727 39.3830909,37.3543636 L41.6461818,39.6169091 C41.7836364,39.7543636 41.9489091,39.8078182 42.1223636,39.8078182 C42.3416364,39.8078182 42.5729091,39.7221818 42.7774545,39.6169091 L43.8078182,38.9989091 C44.5834545,39.4472727 45.4223636,39.7985455 46.3087273,40.0358182 L46.6,41.1998182 C46.6998182,41.592 46.9583636,42 47.3996364,42 L50.6003636,42 C51.0416364,42 51.2750909,41.592 51.4,41.1998182 L51.6912727,40.0358182 C52.5776364,39.7985455 53.4165455,39.4472727 54.1921818,38.9989091 L55.2225455,39.6169091 C55.4270909,39.7221818 55.6589091,39.8078182 55.8776364,39.8078182 C56.0510909,39.8078182 56.2158182,39.7543636 56.3538182,39.6169091 L58.6169091,37.3543636 C58.9289091,37.0412727 58.8230909,36.5705455 58.6169091,36.2225455 L58.0021818,35.1987273 C58.4538182,34.4203636 58.8067273,33.5787273 59.0450909,32.6890909 L60.1998182,32.4005455 C60.592,32.2750909 61,32.0421818 61,31.6003636 L61,28.4007273 C61,27.9583636 60.592,27.6998182 60.1998182,27.6005455 L60.1998182,27.6005455 Z M54.4545455,30 C54.4545455,32.8287273 52.3016364,35.154 49.5454545,35.4272727 L49.5454545,32.1049091 C50.4852727,31.8616364 51.1818182,31.0161818 51.1818182,30 C51.1818182,29.8112727 51.1496364,29.6307273 51.1043636,29.4550909 L54.0089091,27.8416364 C54.2947273,28.5038182 54.4545455,29.2330909 54.4545455,30 L54.4545455,30 Z M47.9090909,30 C47.9090909,29.3978182 48.3978182,28.9090909 49,28.9090909 C49.6021818,28.9090909 50.0909091,29.3978182 50.0909091,30 C50.0909091,30.6027273 49.6021818,31.0909091 49,31.0909091 C48.3978182,31.0909091 47.9090909,30.6027273 47.9090909,30 L47.9090909,30 Z M48.4545455,35.4272727 C45.6983636,35.154 43.5454545,32.8287273 43.5454545,30 C43.5454545,29.2330909 43.7052727,28.5038182 43.9910909,27.8416364 L46.8956364,29.4550909 C46.8503636,29.6307273 46.8181818,29.8112727 46.8181818,30 C46.8181818,31.0161818 47.5147273,31.8616364 48.4545455,32.1049091 L48.4545455,35.4272727 Z M49,24.5454545 C50.8550909,24.5454545 52.4914545,25.4738182 53.4770909,26.8887273 L50.578,28.5 C50.1803636,28.0821818 49.6223636,27.8181818 49,27.8181818 C48.3776364,27.8181818 47.8196364,28.0821818 47.422,28.5 L44.5229091,26.8887273 C45.5085455,25.4738182 47.1449091,24.5454545 49,24.5454545 L49,24.5454545 Z M49,23.4545455 C45.3852727,23.4545455 42.4545455,26.3852727 42.4545455,30 C42.4545455,33.6152727 45.3852727,36.5454545 49,36.5454545 C52.6147273,36.5454545 55.5454545,33.6152727 55.5454545,30 C55.5454545,26.3852727 52.6147273,23.4545455 49,23.4545455 L49,23.4545455 Z" id="作业"></path>
                </g>
            </g>
        </g>
    </g>
</svg>