<?xml version="1.0" encoding="UTF-8"?>
<svg width="20px" height="24px" viewBox="0 0 20 24" version="1.1" xmlns="http://www.w3.org/2000/svg" xmlns:xlink="http://www.w3.org/1999/xlink">
    <!-- Generator: Sketch 46.2 (44496) - http://www.bohemiancoding.com/sketch -->
    <title>Fill 339</title>
    <desc>Created with Sketch.</desc>
    <defs></defs>
    <g id="Page-1" stroke="none" stroke-width="1" fill="none" fill-rule="evenodd">
        <g id="流程图" transform="translate(-795.000000, -679.000000)" fill="#4B556A">
            <g transform="translate(351.000000, 519.000000)" id="Group-15-Copy-3">
                <g transform="translate(405.000000, 138.000000)">
                    <path d="M48.8181818,27.4545455 C43.9985455,27.4545455 40.0909091,26.4776364 40.0909091,25.2727273 C40.0909091,24.0678182 43.9985455,23.0909091 48.8181818,23.0909091 C53.6378182,23.0909091 57.5454545,24.0678182 57.5454545,25.2727273 C57.5454545,26.4776364 53.6378182,27.4545455 48.8181818,27.4545455 L48.8181818,27.4545455 Z M57.5454545,29.6363636 C57.5454545,30.8412727 53.6378182,31.8181818 48.8181818,31.8181818 C43.9985455,31.8181818 40.0909091,30.8412727 40.0909091,29.6363636 L40.0909091,26.7678182 C41.7207273,27.8227273 45.0130909,28.5454545 48.8181818,28.5454545 C52.6238182,28.5454545 55.9156364,27.8227273 57.5454545,26.7678182 L57.5454545,29.6363636 Z M48.8181818,34 C43.9985455,34 40.0909091,33.0230909 40.0909091,31.8181818 C40.0909091,31.636 40.1901818,31.4603636 40.3581818,31.2912727 C42.0638182,32.2583636 45.2094545,32.9090909 48.8181818,32.9090909 C52.4269091,32.9090909 55.5725455,32.2583636 57.2787273,31.2912727 C57.4461818,31.4603636 57.5454545,31.636 57.5454545,31.8181818 C57.5454545,33.0230909 53.6378182,34 48.8181818,34 L48.8181818,34 Z M57.5454545,36.1818182 C57.5454545,37.3867273 53.6378182,38.3636364 48.8181818,38.3636364 C43.9985455,38.3636364 40.0909091,37.3867273 40.0909091,36.1818182 L40.0909091,33.3132727 C41.7207273,34.3681818 45.0130909,35.0909091 48.8181818,35.0909091 C52.6238182,35.0909091 55.9156364,34.3681818 57.5454545,33.3132727 L57.5454545,36.1818182 Z M48.8181818,40.5454545 C43.9985455,40.5454545 40.0909091,39.5685455 40.0909091,38.3636364 C40.0909091,38.1814545 40.1901818,38.0058182 40.3581818,37.8367273 C42.0638182,38.8038182 45.2094545,39.4545455 48.8181818,39.4545455 C52.4269091,39.4545455 55.5725455,38.8038182 57.2787273,37.8367273 C57.4461818,38.0058182 57.5454545,38.1814545 57.5454545,38.3636364 C57.5454545,39.5685455 53.6378182,40.5454545 48.8181818,40.5454545 L48.8181818,40.5454545 Z M57.5454545,42.7272727 C57.5454545,43.9321818 53.6378182,44.9090909 48.8181818,44.9090909 C43.9985455,44.9090909 40.0909091,43.9321818 40.0909091,42.7272727 L40.0909091,39.8587273 C41.7207273,40.9136364 45.0130909,41.6363636 48.8181818,41.6363636 C52.6238182,41.6363636 55.9156364,40.9136364 57.5454545,39.8587273 L57.5454545,42.7272727 Z M58.6363636,25.2727273 C58.6363636,23.4656364 54.2405455,22 48.8181818,22 C43.3958182,22 39,23.4656364 39,25.2727273 L39,29.6363636 C39,30.0198182 39.2078182,30.3858182 39.5710909,30.7272727 C39.2078182,31.0692727 39,31.4352727 39,31.8181818 L39,36.1818182 C39,36.5652727 39.2078182,36.9312727 39.5705455,37.2727273 C39.2078182,37.6147273 39,37.9807273 39,38.3636364 L39,42.7272727 C39,44.5343636 43.3958182,46 48.8181818,46 C54.2405455,46 58.6363636,44.5343636 58.6363636,42.7272727 L58.6363636,38.3636364 C58.6363636,37.9807273 58.4285455,37.6147273 58.0658182,37.2727273 C58.4285455,36.9312727 58.6363636,36.5652727 58.6363636,36.1818182 L58.6363636,31.8181818 C58.6363636,31.4352727 58.4285455,31.0692727 58.0658182,30.7272727 C58.4285455,30.3858182 58.6363636,30.0198182 58.6363636,29.6363636 L58.6363636,25.2727273 Z" id="Fill-339"></path>
                </g>
            </g>
        </g>
    </g>
</svg>