<?xml version="1.0" encoding="UTF-8"?>
<svg width="28px" height="26px" viewBox="0 0 28 26" version="1.1" xmlns="http://www.w3.org/2000/svg" xmlns:xlink="http://www.w3.org/1999/xlink">
    <!-- Generator: Sketch 46.2 (44496) - http://www.bohemiancoding.com/sketch -->
    <title>Shape</title>
    <desc>Created with Sketch.</desc>
    <defs></defs>
    <g id="Page-1" stroke="none" stroke-width="1" fill="none" fill-rule="evenodd" opacity="0.5">
        <g id="流程图" transform="translate(-1079.000000, -804.000000)" stroke="#FFFFFF" fill-rule="nonzero" stroke-width="0.5" fill="#4B556A">
            <g transform="translate(351.000000, 519.000000)" id="Group-15-Copy-7">
                <g transform="translate(692.000000, 265.000000)">
                    <path d="M58.9070506,21 L40.9255409,21 C38.7728249,21 37,22.7055838 37,24.7766497 L37,41.2233503 C37,43.2944162 38.7728249,45 40.9255409,45 L58.9070506,45 C61.0597665,45 62.8325914,43.2944162 62.8325914,41.2233503 L62.8325914,24.7766497 C62.8325914,22.7055838 61.1863969,21 58.9070506,21 Z M60.9331362,41.3451777 C60.9331362,42.4416244 60.0467237,43.2944162 58.9070506,43.2944162 L40.9255409,43.2944162 C39.7858677,43.2944162 38.8994553,42.4416244 38.8994553,41.3451777 L38.8994553,24.7766497 C38.8994553,23.680203 39.7858677,22.8274112 40.9255409,22.8274112 L58.9070506,22.8274112 C60.0467237,22.8274112 60.9331362,23.680203 60.9331362,24.7766497 L60.9331362,41.3451777 Z M46.4972763,26.9695431 L43.7114086,29.6497462 L42.4451051,28.4314721 C42.065214,28.0659898 41.4320623,28.0659898 41.1788016,28.4314721 C40.7989105,28.7969543 40.7989105,29.4060914 41.1788016,29.6497462 L43.2048872,31.5989848 C43.3315175,31.7208122 43.5847782,31.8426396 43.9646693,31.8426396 C44.3445603,31.8426396 44.3445603,31.7208122 44.7244514,31.5989848 L48.1434708,28.3096447 C48.5233619,27.9441624 48.5233619,27.3350254 48.1434708,27.0913706 C47.3836887,26.7258883 46.8771673,26.7258883 46.4972763,26.9695431 Z M58.1472685,28.4314721 L49.4097743,28.4314721 C48.7766226,28.4314721 48.5233619,28.7969543 48.5233619,29.284264 C48.5233619,29.893401 48.9032529,30.1370558 49.4097743,30.1370558 L58.1472685,30.1370558 C58.7804202,30.1370558 59.0336809,29.7715736 59.0336809,29.284264 C59.0336809,28.7969543 58.6537899,28.4314721 58.1472685,28.4314721 Z M44.21793,33.9137056 C42.5717354,33.9137056 41.3054319,35.1319797 41.3054319,36.715736 C41.3054319,38.2994924 42.5717354,39.5177665 44.21793,39.5177665 C45.8641245,39.5177665 47.130428,38.2994924 47.130428,36.715736 C47.130428,35.0101523 45.7374942,33.9137056 44.21793,33.9137056 Z M44.21793,37.5685279 C43.5847782,37.5685279 43.2048872,37.2030457 43.2048872,36.5939086 C43.2048872,35.9847716 43.5847782,35.6192893 44.21793,35.6192893 C44.8510817,35.6192893 45.2309728,35.9847716 45.2309728,36.5939086 C45.2309728,37.2030457 44.7244514,37.5685279 44.21793,37.5685279 Z M58.1472685,35.7411168 L49.4097743,35.7411168 C48.7766226,35.7411168 48.5233619,36.106599 48.5233619,36.5939086 C48.5233619,37.0812183 48.9032529,37.4467005 49.4097743,37.4467005 L58.1472685,37.4467005 C58.7804202,37.4467005 59.0336809,37.0812183 59.0336809,36.5939086 C59.0336809,36.106599 58.6537899,35.7411168 58.1472685,35.7411168 Z" id="Shape"></path>
                </g>
            </g>
        </g>
    </g>
</svg>