<?xml version="1.0" encoding="UTF-8"?>
<svg width="14px" height="14px" viewBox="0 0 14 14" version="1.1" xmlns="http://www.w3.org/2000/svg" xmlns:xlink="http://www.w3.org/1999/xlink">
    <!-- Generator: Sketch 48.2 (47327) - http://www.bohemiancoding.com/sketch -->
    <title>Shape</title>
    <desc>Created with Sketch.</desc>
    <defs></defs>
    <g id="9-执行详情3" stroke="none" stroke-width="1" fill="none" fill-rule="evenodd" transform="translate(-1080.000000, -952.000000)">
        <g id="节点" transform="translate(481.000000, 581.000000)" fill="#FFFFFF" fill-rule="nonzero">
            <g id="执行中" transform="translate(592.000000, 364.000000)">
                <path d="M13,7.66669551 C13,7.29848975 13.2237969,7 13.5,7 C13.7761424,7 14,7.29819776 14,7.66669551 L14,10.3333045 C14,10.7015103 13.7762031,11 13.5,11 C13.2238576,11 13,10.7018022 13,10.3333045 L13,7.66669551 Z M13,17.6666955 C13,17.2984897 13.2237969,17 13.5,17 C13.7761424,17 14,17.2981978 14,17.6666955 L14,20.3333045 C14,20.7015103 13.7762031,21 13.5,21 C13.2238576,21 13,20.7018022 13,20.3333045 L13,17.6666955 Z M20.3333045,13 C20.7015103,13 21,13.2237969 21,13.5 C21,13.7761424 20.7018022,14 20.3333045,14 L17.6666955,14 C17.2984897,14 17,13.7762031 17,13.5 C17,13.2238576 17.2981978,13 17.6666955,13 L20.3333045,13 Z M10.3333045,13 C10.7015103,13 11,13.2237969 11,13.5 C11,13.7761424 10.7018022,14 10.3333045,14 L7.66669551,14 C7.29848975,14 7,13.7762031 7,13.5 C7,13.2238576 7.29819776,13 7.66669551,13 L10.3333045,13 Z M18.8179878,17.9393013 C19.0606366,18.1819417 19.0606985,18.5752777 18.8180068,18.817961 C18.5753684,19.0605909 18.1821578,19.0607748 17.9393166,18.817942 L16.1820122,17.0606987 C15.9393634,16.8180583 15.9393015,16.4247223 16.1819932,16.182039 C16.4246316,15.9394091 16.8178421,15.9392252 17.0606834,16.182058 L18.8179878,17.9393013 Z M11.8179878,10.9393013 C12.0606366,11.1819417 12.0606985,11.5752777 11.8180068,11.817961 C11.5753684,12.0605909 11.1821579,12.0607748 10.9393166,11.817942 L9.18201221,10.0606987 C8.93936336,9.81805828 8.93930151,9.42472227 9.1819932,9.18203903 C9.42463155,8.93940912 9.81784216,8.93922521 10.0606834,9.18205803 L11.8179878,10.9393013 Z M17.9393013,9.18201221 C18.1819417,8.93936336 18.5752777,8.93930151 18.817961,9.1819932 C19.0605909,9.42463155 19.0607748,9.81784216 18.817942,10.0606834 L17.0606987,11.8179878 C16.8180583,12.0606366 16.4247223,12.0606985 16.182039,11.8180068 C15.9394091,11.5753684 15.9392252,11.1821579 16.182058,10.9393166 L17.9393013,9.18201221 Z M10.9393013,16.1820122 C11.1819417,15.9393634 11.5752777,15.9393015 11.817961,16.1819932 C12.0605909,16.4246316 12.0607748,16.8178421 11.817942,17.0606834 L10.0606987,18.8179878 C9.81805828,19.0606366 9.42472227,19.0606985 9.18203903,18.8180068 C8.93940912,18.5753684 8.93922521,18.1821578 9.18205803,17.9393166 L10.9393013,16.1820122 Z" id="Shape"></path>
            </g>
        </g>
    </g>
</svg>