<?xml version="1.0" encoding="UTF-8"?>
<svg width="18px" height="4px" viewBox="0 0 18 4" version="1.1" xmlns="http://www.w3.org/2000/svg" xmlns:xlink="http://www.w3.org/1999/xlink">
    <!-- Generator: Sketch 48.2 (47327) - http://www.bohemiancoding.com/sketch -->
    <title>待确认</title>
    <desc>Created with Sketch.</desc>
    <defs></defs>
    <g id="7-执行详情" stroke="none" stroke-width="1" fill="none" fill-rule="evenodd" transform="translate(-902.000000, -713.000000)">
        <g id="节点" transform="translate(481.000000, 581.000000)" fill="#FFFFFF">
            <g id="待确认" transform="translate(421.000000, 132.000000)">
                <path d="M2.22727273,0.818181818 C1.39927273,0.818181818 0.727272727,1.49018182 0.727272727,2.31818182 C0.727272727,3.14618182 1.39927273,3.81818182 2.22727273,3.81818182 C3.05527273,3.81818182 3.72727273,3.14618182 3.72727273,2.31818182 C3.72727273,1.49018182 3.05527273,0.818181818 2.22727273,0.818181818" id="Path"></path>
                <path d="M9.22727273,0.818181818 C8.39927273,0.818181818 7.72727273,1.49018182 7.72727273,2.31818182 C7.72727273,3.14618182 8.39927273,3.81818182 9.22727273,3.81818182 C10.0552727,3.81818182 10.7272727,3.14618182 10.7272727,2.31818182 C10.7272727,1.49018182 10.0552727,0.818181818 9.22727273,0.818181818" id="Path"></path>
                <path d="M16.2272727,0.818181818 C15.3992727,0.818181818 14.7272727,1.49018182 14.7272727,2.31818182 C14.7272727,3.14618182 15.3992727,3.81818182 16.2272727,3.81818182 C17.0552727,3.81818182 17.7272727,3.14618182 17.7272727,2.31818182 C17.7272727,1.49018182 17.0552727,0.818181818 16.2272727,0.818181818" id="Path"></path>
            </g>
        </g>
    </g>
</svg>