<?xml version="1.0" encoding="UTF-8"?>
<svg width="12px" height="12px" viewBox="0 0 12 12" version="1.1" xmlns="http://www.w3.org/2000/svg" xmlns:xlink="http://www.w3.org/1999/xlink">
    <!-- Generator: Sketch 48.2 (47327) - http://www.bohemiancoding.com/sketch -->
    <title>Shape</title>
    <desc>Created with Sketch.</desc>
    <defs></defs>
    <g id="5-新建编排v2-汇聚" stroke="none" stroke-width="1" fill="none" fill-rule="evenodd" transform="translate(-321.000000, -843.000000)">
        <g id="删除" transform="translate(309.000000, 834.000000)" fill="#FFFFFF" fill-rule="nonzero">
            <path d="M16.6431154,19.3433333 C16.9435327,19.3433333 17.1888734,19.1 17.1888734,18.7983333 L17.1888734,12.2683333 C17.1888734,11.9683333 16.9452017,11.7233333 16.6431154,11.7233333 C16.3426982,11.7233333 16.0973574,11.9666667 16.0973574,12.2683333 L16.0973574,18.8 C16.0973574,19.1 16.3410292,19.3433333 16.6431154,19.3433333 Z M23.455911,10.09 L18.8228095,10.09 L18.8228095,9.545 C18.8228095,9.245 18.5791377,9 18.2770515,9 L17.7312935,9 C17.4308762,9 17.1855355,9.24333333 17.1855355,9.545 L17.1855355,10.09 L12.5541029,10.09 C12.2536857,10.09 12.0083449,10.3333333 12.0083449,10.635 C12.0083449,10.935 12.2520167,11.18 12.5541029,11.18 L13.3719054,11.18 L13.3719054,19.8883333 C13.3719054,20.49 13.859249,20.9766667 14.4617524,20.9766667 L21.5465925,20.9766667 C22.149096,20.9766667 22.6364395,20.49 22.6364395,19.8883333 L22.6364395,11.18 L23.454242,11.18 C23.7546592,11.18 24,10.9366667 24,10.635 C24,10.3333333 23.7563282,10.09 23.455911,10.09 L23.455911,10.09 Z M21.5482615,19.3433333 C21.5482615,19.6433333 21.3045897,19.8883333 21.0025035,19.8883333 L15.0075104,19.8883333 C14.7070932,19.8883333 14.4617524,19.645 14.4617524,19.3433333 L14.4617524,11.18 L21.5465925,11.18 L21.5465925,19.3433333 L21.5482615,19.3433333 L21.5482615,19.3433333 Z M19.3668985,19.3433333 C19.6673157,19.3433333 19.9126565,19.1 19.9126565,18.7983333 L19.9126565,12.2683333 C19.9126565,11.9683333 19.6689847,11.7233333 19.3668985,11.7233333 C19.0664812,11.7233333 18.8211405,11.9666667 18.8211405,12.2683333 L18.8211405,18.8 C18.8228095,19.1 19.0664812,19.3433333 19.3668985,19.3433333 Z" id="Shape"></path>
        </g>
    </g>
</svg>