<?xml version="1.0" encoding="UTF-8"?>
<svg width="12px" height="13px" viewBox="0 0 12 13" version="1.1" xmlns="http://www.w3.org/2000/svg" xmlns:xlink="http://www.w3.org/1999/xlink">
    <!-- Generator: Sketch 48.2 (47327) - http://www.bohemiancoding.com/sketch -->
    <title>编辑</title>
    <desc>Created with Sketch.</desc>
    <defs></defs>
    <g id="5-新建编排v2-汇聚" stroke="none" stroke-width="1" fill="none" fill-rule="evenodd" transform="translate(-397.000000, -842.000000)">
        <g id="编辑" transform="translate(385.000000, 834.000000)" fill="#FFFFFF" fill-rule="nonzero">
            <g transform="translate(12.000000, 8.000000)" id="Shape">
                <path d="M3.39203445,9.46307858 C3.39203445,9.58708288 3.43336921,9.71108719 3.55737352,9.8350915 C3.64004306,9.91776103 3.76404736,9.9590958 3.92938644,9.9590958 C4.05339074,9.9590958 4.21872982,9.91776103 4.30139935,9.79375673 L11.8243272,0.906781485 C11.9069968,0.824111948 11.9896663,0.700107643 11.9896663,0.534768568 C11.9896663,0.369429494 11.9483315,0.286759957 11.8243272,0.162755651 C11.6176534,-0.0439181916 11.2869752,-0.0439181916 11.0803014,0.162755651 L3.55737352,9.04973089 C3.43336921,9.1737352 3.39203445,9.33907427 3.39203445,9.46307858 Z"></path>
                <path d="M11.4523143,6.2803014 C11.1629709,6.2803014 10.9562971,6.48697524 10.9562971,6.77631862 L10.9562971,11.4884822 C10.9562971,11.6951561 10.790958,11.8604952 10.5429494,11.8604952 L1.40796555,11.8604952 C1.20129171,11.8604952 0.994617869,11.6951561 0.994617869,11.4884822 L0.994617869,2.68417653 C0.994617869,2.47750269 1.15995694,2.31216362 1.40796555,2.31216362 L5.66544672,2.31216362 C5.9547901,2.31216362 6.16146394,2.10548977 6.16146394,1.81614639 C6.16146394,1.52680301 5.91345533,1.32012917 5.66544672,1.32012917 L1.40796555,1.32012917 C0.622604952,1.32012917 0.00258342304,1.9401507 0.00258342304,2.68417653 L0.00258342304,11.4884822 C0.00258342304,12.2325081 0.622604952,12.8525296 1.40796555,12.8525296 L10.5429494,12.8525296 C11.32831,12.8525296 11.9483315,12.2325081 11.9483315,11.4884822 L11.9483315,6.77631862 C11.9483315,6.48697524 11.7003229,6.2803014 11.4523143,6.2803014 Z"></path>
            </g>
        </g>
    </g>
</svg>