<?xml version="1.0" encoding="UTF-8"?>
<svg width="14px" height="10px" viewBox="0 0 14 10" version="1.1" xmlns="http://www.w3.org/2000/svg" xmlns:xlink="http://www.w3.org/1999/xlink">
    <!-- Generator: Sketch 48.2 (47327) - http://www.bohemiancoding.com/sketch -->
    <title>organization</title>
    <desc>Created with Sketch.</desc>
    <defs></defs>
    <g id="5-新建编排v2-汇聚" stroke="none" stroke-width="1" fill="none" fill-rule="evenodd" transform="translate(-472.000000, -844.000000)">
        <g id="流程图" transform="translate(461.000000, 834.000000)" fill="#008EF2" fill-rule="nonzero">
            <path d="M16.0646807,10.3409091 L16.0646807,13.4174058 C16.0646807,13.6058758 16.2217915,13.7583149 16.4160375,13.7583149 L17.6500714,13.7583149 L17.6500714,14.6840355 L12.9367476,14.6840355 C12.7425015,14.6840355 12.5853907,14.8364745 12.5853907,15.0249446 L12.5853907,16.2416851 L11.3513569,16.2416851 C11.1571108,16.2416851 11,16.3941242 11,16.5825942 L11,19.6590909 C11,19.847561 11.1571108,20 11.3513569,20 L14.5221383,20 C14.7163844,20 14.8734952,19.847561 14.8734952,19.6590909 L14.8734952,16.5825942 C14.8734952,16.3941242 14.7163844,16.2416851 14.5221383,16.2416851 L13.2852479,16.2416851 L13.2852479,15.363082 L17.6472149,15.363082 L17.6472149,16.2416851 L16.413181,16.2416851 C16.2189349,16.2416851 16.0618241,16.3941242 16.0618241,16.5825942 L16.0618241,19.6590909 C16.0618241,19.847561 16.2189349,20 16.413181,20 L19.5839625,20 C19.7782085,20 19.9353193,19.847561 19.9353193,19.6590909 L19.9353193,16.5825942 C19.9353193,16.3941242 19.7782085,16.2416851 19.5839625,16.2416851 L18.3499286,16.2416851 L18.3499286,15.363082 L22.7118955,15.363082 L22.7118955,16.2416851 L21.4778617,16.2416851 C21.2836156,16.2416851 21.1265048,16.3941242 21.1265048,16.5825942 L21.1265048,19.6590909 C21.1265048,19.847561 21.2836156,20 21.4778617,20 L24.6486431,20 C24.8428892,20 25,19.847561 25,19.6590909 L25,16.5825942 C25,16.3941242 24.8428892,16.2416851 24.6486431,16.2416851 L23.4146093,16.2416851 L23.4146093,15.0249446 C23.4146093,14.8364745 23.2574985,14.6840355 23.0632524,14.6840355 L18.3499286,14.6840355 L18.3499286,13.7583149 L19.5839625,13.7583149 C19.7782085,13.7583149 19.9353193,13.6058758 19.9353193,13.4174058 L19.9353193,10.3409091 C19.9353193,10.152439 19.7782085,10 19.5839625,10 L16.413181,10 C16.2217915,10 16.0646807,10.152439 16.0646807,10.3409091 Z M14.1707815,19.3154102 L11.7027137,19.3154102 L11.7027137,16.9179601 L14.1707815,16.9179601 L14.1707815,19.3154102 Z M19.2326056,19.3154102 L16.7616813,19.3154102 L16.7616813,16.9179601 L19.2326056,16.9179601 L19.2326056,19.3154102 Z M24.2944297,19.3154102 L21.826362,19.3154102 L21.826362,16.9179601 L24.2972863,16.9179601 L24.2972863,19.3154102 L24.2944297,19.3154102 Z M16.7645378,10.6790466 L19.2354622,10.6790466 L19.2354622,13.0764967 L16.7645378,13.0764967 L16.7645378,10.6790466 L16.7645378,10.6790466 Z" id="organization"></path>
        </g>
    </g>
</svg>