<?xml version="1.0" encoding="UTF-8"?>
<svg width="41px" height="41px" viewBox="0 0 41 41" version="1.1" xmlns="http://www.w3.org/2000/svg" xmlns:xlink="http://www.w3.org/1999/xlink">
    <!-- Generator: Sketch 46.2 (44496) - http://www.bohemiancoding.com/sketch -->
    <title>white</title>
    <desc>Created with Sketch.</desc>
    <defs>
        <rect id="path-1" x="0" y="0" width="40.0042624" height="40.0042624" rx="2"></rect>
    </defs>
    <g id="Page-1" stroke="none" stroke-width="1" fill="none" fill-rule="evenodd">
        <g id="Artboard" transform="translate(-106.000000, -32.000000)">
            <g id="white" transform="translate(106.000000, 32.000000)">
                <g id="Group-6">
                    <g id="Rectangle-Copy-2">
                        <use fill="#FFFFFF" fill-rule="evenodd" xlink:href="#path-1"></use>
                        <rect stroke="#4B556A" stroke-width="1" x="0.5" y="0.5" width="39.0042624" height="39.0042624" rx="2"></rect>
                    </g>
                </g>
                <g id="icon" transform="translate(9.000000, 10.000000)" fill="#4B556A">
                    <path d="M1.57142857,1.05285714 C1.13771429,1.05285714 0.785714286,1.40721429 0.785714286,1.83857143 L0.785714286,15.9814286 C0.785714286,16.4143571 1.13771429,16.7671429 1.57142857,16.7671429 L20.4285714,16.7671429 C20.8622857,16.7671429 21.2142857,16.4143571 21.2142857,15.9814286 L21.2142857,1.83857143 C21.2142857,1.40721429 20.8622857,1.05285714 20.4285714,1.05285714 L1.57142857,1.05285714 L1.57142857,1.05285714 Z M20.4285714,17.5528571 L1.57142857,17.5528571 C0.704785714,17.5528571 0,16.8457143 0,15.9814286 L0,1.83857143 C0,0.974285714 0.704785714,0.267142857 1.57142857,0.267142857 L20.4285714,0.267142857 C21.2952143,0.267142857 22,0.974285714 22,1.83857143 L22,15.9814286 C22,16.8457143 21.2952143,17.5528571 20.4285714,17.5528571 L20.4285714,17.5528571 Z" id="Fill-8862"></path>
                    <path d="M14.1428571,19.1242857 L7.85714286,19.1242857 C7.64028571,19.1242857 7.46428571,18.9522143 7.46428571,18.7314286 C7.46428571,18.5122143 7.64028571,18.3385714 7.85714286,18.3385714 L14.1428571,18.3385714 C14.3597143,18.3385714 14.5357143,18.5122143 14.5357143,18.7314286 C14.5357143,18.9522143 14.3597143,19.1242857 14.1428571,19.1242857" id="Fill-8863"></path>
                    <path d="M2.35714286,14.41 L19.6428571,14.41 L19.6428571,2.62428571 L2.35714286,2.62428571 L2.35714286,14.41 Z M20.0357143,15.1957143 L1.96428571,15.1957143 C1.74742857,15.1957143 1.57142857,15.0228571 1.57142857,14.8028571 L1.57142857,2.23142857 C1.57142857,2.01221429 1.74742857,1.83857143 1.96428571,1.83857143 L20.0357143,1.83857143 C20.2525714,1.83857143 20.4285714,2.01221429 20.4285714,2.23142857 L20.4285714,14.8028571 C20.4285714,15.0228571 20.2525714,15.1957143 20.0357143,15.1957143 L20.0357143,15.1957143 Z" id="Fill-8864"></path>
                    <g id="Group" transform="translate(7.071429, 4.714286)">
                        <path d="M1.86335165,5.36098901 C1.94434066,5.36098901 2.02532967,5.39120879 2.08395604,5.4582967 C2.23868132,5.62148352 2.41576923,5.75989011 2.61038462,5.87532967 C2.74516484,5.9539011 2.79835165,6.12313187 2.73428571,6.26214286 C2.66417582,6.48516484 2.77538462,6.68461538 2.96516484,6.73901099 C3.14708791,6.79340659 3.3543956,6.67917582 3.40697802,6.49181319 C3.43236264,6.34615385 3.56714286,6.2017033 3.72065934,6.18901099 L3.78532967,6.18901099 C3.98961538,6.18901099 4.19269231,6.16543956 4.38851648,6.11104396 C4.54082418,6.06813187 4.69675824,6.15274725 4.75115385,6.2978022 C4.75538462,6.30989011 4.76807692,6.3521978 4.7710989,6.36489011 C4.84302198,6.49181319 5.07510989,6.57038462 5.24373626,6.47307692 C5.32714286,6.43076923 5.38758242,6.3521978 5.41357143,6.26214286 C5.43956044,6.16543956 5.42868132,6.07478022 5.38274725,5.99016484 C5.38153846,5.9956044 5.36521978,5.97747253 5.3489011,5.95994505 C5.25703297,5.83241758 5.27274725,5.66379121 5.38516484,5.5543956 C5.54895604,5.4032967 5.68917582,5.22802198 5.8028022,5.02917582 C5.87895604,4.90225275 6.03851648,4.84725275 6.17873626,4.90225275 C6.25791209,4.93186813 6.29115385,4.93791209 6.32379121,4.93791209 C6.48274725,4.93791209 6.62417582,4.82912088 6.66769231,4.67862637 C6.72208791,4.48461538 6.61087912,4.29120879 6.4210989,4.23076923 C6.2693956,4.21263736 6.11346154,4.07362637 6.1182967,3.92252747 C6.12494505,3.69346154 6.09835165,3.46923077 6.03972527,3.25225275 C5.99923077,3.10115385 6.0771978,2.95005495 6.22104396,2.88961538 C6.23434066,2.88961538 6.28269231,2.87087912 6.29659341,2.87087912 C6.34796703,2.83461538 6.40840659,2.76269231 6.4343956,2.67142857 C6.46038462,2.57532967 6.4489011,2.47802198 6.40236264,2.39945055 C6.30989011,2.23021978 6.08505495,2.16434066 5.91642857,2.26043956 L5.91703297,2.26043956 C5.9260989,2.26043956 5.90796703,2.27252747 5.88862637,2.29126374 C5.76593407,2.38131868 5.59126374,2.36923077 5.48489011,2.2543956 C5.33076923,2.09120879 5.15368132,1.9521978 4.95785714,1.83796703 C4.82730769,1.76483516 4.77230769,1.60164835 4.82972527,1.46263736 C4.90406593,1.22692308 4.79346154,1.02747253 4.60428571,0.973681319 C4.41571429,0.918681319 4.21445055,1.03351648 4.16186813,1.22087912 C4.14192308,1.37197802 4.01137363,1.53516484 3.84879121,1.52307692 L3.78412088,1.52307692 C3.57923077,1.52307692 3.37615385,1.54785714 3.17972527,1.60164835 C3.03467033,1.63791209 2.88175824,1.56598901 2.82313187,1.42697802 C2.81648352,1.41489011 2.80076923,1.35989011 2.79714286,1.3478022 C2.72582418,1.22692308 2.49313187,1.14230769 2.32510989,1.23961538 C2.2410989,1.28796703 2.18065934,1.35989011 2.15467033,1.45054945 C2.12868132,1.54785714 2.13956044,1.64395604 2.1860989,1.72252747 C2.18549451,1.71648352 2.20483516,1.73461538 2.22236264,1.75879121 C2.3106044,1.88027473 2.29428571,2.0489011 2.18368132,2.1582967 C2.02049451,2.3093956 1.87967033,2.48467033 1.76543956,2.68351648 C1.68747253,2.81708791 1.51945055,2.87087912 1.37923077,2.8043956 C1.31032967,2.78082418 1.27769231,2.77478022 1.24505495,2.77478022 C1.08549451,2.77478022 0.94467033,2.88296703 0.900549451,3.03406593 C0.846758242,3.22807692 0.957362637,3.42692308 1.14714286,3.48192308 C1.29824176,3.49945055 1.45417582,3.63846154 1.44994505,3.78956044 C1.4439011,4.01923077 1.47049451,4.24285714 1.52851648,4.46104396 C1.56840659,4.60549451 1.49104396,4.76324176 1.34901099,4.81703297 C1.33571429,4.82307692 1.28917582,4.84181319 1.27527473,4.84181319 C1.22087912,4.87807692 1.16043956,4.95 1.13445055,5.04126374 C1.10785714,5.13736264 1.11934066,5.23406593 1.16587912,5.31928571 C1.25895604,5.48247253 1.485,5.54835165 1.65181319,5.4582967 C1.64274725,5.45164835 1.66510989,5.43351648 1.69049451,5.41538462 C1.74247253,5.37912088 1.80351648,5.36098901 1.86335165,5.36098901 L1.86335165,5.36098901 Z M3.06126374,7.35549451 C2.97302198,7.35549451 2.88478022,7.35005495 2.79956044,7.32527473 C2.33538462,7.19230769 2.04769231,6.73357143 2.10813187,6.27423077 C2.00659341,6.2017033 1.91049451,6.12313187 1.81862637,6.04395604 C1.3889011,6.20714286 0.864285714,6.01373626 0.638241758,5.6093956 C0.513131868,5.38516484 0.482307692,5.12527473 0.553021978,4.87807692 C0.61043956,4.67862637 0.728901099,4.50274725 0.891483516,4.38186813 C0.869120879,4.25494505 0.85521978,4.13467033 0.848571429,4.01379121 C0.420659341,3.81978022 0.187362637,3.33626374 0.319120879,2.87087912 C0.447857143,2.41758242 0.90478022,2.12203297 1.36956044,2.18247253 C1.43967033,2.07912088 1.51642857,1.98302198 1.59862637,1.89236264 C1.52549451,1.69835165 1.51642857,1.48681319 1.57384615,1.28796703 C1.64395604,1.03956044 1.80653846,0.83467033 2.03076923,0.713186813 C2.43813187,0.483516484 2.9832967,0.604395604 3.26131868,0.961593407 C3.3828022,0.942857143 3.5060989,0.92532967 3.6293956,0.918681319 C3.82038462,0.501648352 4.31598901,0.25989011 4.76928571,0.392857143 C5.23285714,0.525824176 5.52115385,0.979120879 5.46071429,1.43906593 C5.56225275,1.51098901 5.65895604,1.59016484 5.75082418,1.66873626 C6.19263736,1.50554945 6.70576923,1.69835165 6.9306044,2.1032967 C7.05571429,2.32752747 7.08593407,2.58681319 7.01521978,2.83461538 C6.95840659,3.03406593 6.83994505,3.20934066 6.67675824,3.33626374 C6.69912088,3.45714286 6.71302198,3.57802198 6.71967033,3.6989011 C7.14818681,3.89895604 7.38087912,4.37582418 7.24912088,4.84181319 C7.12098901,5.29510989 6.66527473,5.59065934 6.19928571,5.53021978 C6.12917582,5.63296703 6.05241758,5.72967033 5.97021978,5.82093407 C6.04335165,6.01373626 6.05241758,6.22587912 5.995,6.42532967 C5.92428571,6.67252747 5.76230769,6.87862637 5.53807692,7.00554945 C5.13131868,7.22857143 4.58494505,7.11373626 4.30692308,6.7510989 C4.18543956,6.76923077 4.06274725,6.78736264 3.93884615,6.79340659 C3.78412088,7.13247253 3.44142857,7.35549451 3.06126374,7.35549451 L3.06126374,7.35549451 Z" id="Fill-1424"></path>
                        <path d="M3.78351648,3.32417582 C3.5478022,3.32417582 3.33807692,3.48192308 3.27340659,3.71098901 C3.19362637,3.99565934 3.35741758,4.28576923 3.63906593,4.36978022 C3.91225275,4.44230769 4.21747253,4.27912088 4.29483516,4.0010989 C4.33351648,3.86813187 4.3171978,3.72368132 4.24769231,3.59615385 C4.17879121,3.47527473 4.06576923,3.38461538 3.92978022,3.34835165 C3.88142857,3.33021978 3.83247253,3.32417582 3.78351648,3.32417582 L3.78351648,3.32417582 Z M3.78351648,4.99230769 L3.78351648,4.99230769 C3.67895604,4.99230769 3.575,4.98021978 3.47406593,4.95 C2.87148352,4.77472527 2.52093407,4.14675824 2.69197802,3.5478022 C2.85879121,2.96153846 3.50489011,2.59285714 4.09478022,2.76813187 C4.3860989,2.8467033 4.62785714,3.04010989 4.77593407,3.30604396 C4.92340659,3.57197802 4.95967033,3.87417582 4.87626374,4.17032967 C4.73785714,4.65384615 4.28879121,4.99230769 3.78351648,4.99230769 L3.78351648,4.99230769 Z" id="Fill-1425"></path>
                    </g>
                </g>
            </g>
        </g>
    </g>
</svg>